<?xml version="1.0" standalone="no"?>
<!DOCTYPE svg PUBLIC "-//W3C//DTD SVG 20010904//EN"
 "http://www.w3.org/TR/2001/REC-SVG-20010904/DTD/svg10.dtd">
<svg version="1.0" xmlns="http://www.w3.org/2000/svg"
 width="1500.000000pt" height="1500.000000pt" viewBox="0 0 1500.000000 1500.000000"
 preserveAspectRatio="xMidYMid meet">
<metadata>
Created by potrace 1.14, written by Peter Selinger 2001-2017
</metadata>
<g transform="translate(0.000000,1500.000000) scale(0.100000,-0.100000)"
fill="#000000" stroke="none">
<path d="M6167 14504 c-1 -1 -75 -5 -165 -8 -90 -4 -171 -9 -180 -11 -9 -1
-48 -6 -87 -10 -38 -4 -81 -9 -95 -10 -46 -6 -125 -16 -150 -20 -14 -2 -47 -6
-75 -10 -27 -3 -58 -8 -67 -11 -19 -6 -36 -9 -98 -19 -90 -15 -339 -74 -496
-119 -292 -82 -542 -172 -767 -275 -37 -17 -70 -31 -73 -31 -12 0 -326 -161
-439 -225 -296 -168 -668 -422 -840 -574 -22 -20 -65 -56 -95 -81 -132 -109
-450 -420 -548 -533 -28 -34 -64 -76 -80 -93 -235 -270 -482 -621 -676 -963
-47 -82 -188 -361 -226 -446 -12 -27 -28 -63 -36 -80 -133 -300 -293 -796
-348 -1085 -2 -14 -11 -57 -20 -96 -14 -64 -20 -99 -42 -238 -3 -21 -7 -47 -9
-58 -3 -11 -7 -46 -11 -77 -3 -31 -8 -65 -10 -76 -2 -11 -7 -56 -10 -99 -3
-44 -7 -87 -9 -97 -23 -117 -22 -883 0 -1022 2 -12 6 -51 9 -87 7 -68 24 -207
32 -250 2 -14 7 -45 10 -70 3 -25 9 -64 15 -88 5 -23 12 -59 15 -80 3 -20 7
-45 10 -54 3 -10 7 -30 10 -45 13 -74 70 -304 109 -438 340 -1172 1030 -2192
2010 -2970 55 -44 106 -89 114 -99 166 -224 462 -550 696 -766 81 -75 329
-283 418 -353 20 -15 79 -81 132 -147 182 -229 340 -400 586 -635 602 -575
1365 -1028 2199 -1305 205 -68 605 -167 795 -196 17 -3 53 -9 80 -14 28 -5 70
-12 95 -15 25 -3 56 -8 70 -10 14 -2 57 -6 95 -10 39 -4 77 -8 85 -10 139 -27
938 -27 1160 0 19 2 62 7 95 10 93 9 149 16 165 20 8 2 35 7 60 10 25 3 115
19 200 36 85 17 166 33 179 35 217 41 671 185 973 310 185 76 572 269 697 348
22 14 43 26 46 26 3 0 18 8 33 19 15 10 79 52 142 92 156 100 520 365 560 409
3 3 32 28 65 55 179 150 427 394 594 585 41 47 77 87 81 90 3 3 39 48 81 100
605 761 1000 1598 1184 2505 15 73 63 365 69 415 4 30 11 91 16 135 32 272 36
994 5 1205 -2 14 -7 54 -11 90 -4 36 -8 72 -9 80 -1 8 -6 42 -10 75 -4 33 -11
78 -15 100 -5 22 -12 63 -16 90 -3 28 -8 53 -10 56 -2 4 -6 24 -10 45 -5 33
-12 69 -29 144 -2 8 -11 47 -20 85 -9 39 -19 79 -21 90 -21 106 -154 520 -226
700 -222 558 -511 1056 -887 1525 -42 52 -78 97 -81 100 -3 3 -34 39 -70 80
-225 261 -635 645 -852 799 -25 18 -76 73 -112 121 -37 49 -72 95 -79 102 -6
7 -34 40 -62 73 -162 194 -460 497 -635 644 -36 30 -69 60 -75 66 -11 12 -188
153 -221 175 -12 9 -66 71 -121 140 -347 433 -728 798 -1161 1114 -112 81
-406 275 -453 300 -19 9 -50 26 -69 38 -231 138 -582 303 -877 412 -99 36
-275 97 -293 101 -3 1 -25 7 -50 14 -46 13 -66 19 -156 46 -28 9 -59 17 -70
19 -10 2 -37 9 -59 15 -66 17 -426 89 -484 96 -30 4 -62 8 -71 10 -9 2 -41 6
-71 10 -30 3 -61 8 -69 10 -8 2 -49 7 -90 10 -41 3 -82 8 -90 10 -38 10 -692
27 -703 19z m593 -267 c14 -3 68 -8 120 -12 103 -7 147 -11 198 -20 17 -3 47
-8 66 -10 18 -3 78 -12 132 -21 55 -9 113 -18 129 -21 17 -2 46 -8 65 -13 19
-5 49 -11 65 -14 70 -13 290 -70 428 -112 725 -220 1388 -578 1963 -1060 126
-105 171 -145 284 -251 l55 -52 -75 37 c-268 134 -588 269 -811 343 -124 41
-346 106 -382 113 -12 2 -47 11 -77 20 -58 16 -210 51 -270 61 -19 3 -42 8
-50 10 -8 2 -33 7 -55 10 -22 2 -51 7 -65 10 -14 3 -43 7 -65 10 -22 3 -51 7
-65 10 -26 5 -173 23 -250 30 -25 3 -63 7 -85 10 -86 11 -261 17 -500 17 -318
1 -436 -6 -700 -38 -176 -21 -192 -24 -285 -40 -147 -25 -165 -28 -260 -49
-41 -9 -83 -18 -94 -20 -208 -44 -664 -190 -871 -280 -16 -7 -59 -25 -95 -40
-219 -93 -573 -278 -777 -406 -98 -62 -304 -199 -313 -209 -3 -3 -27 -21 -55
-40 -296 -205 -747 -624 -1016 -945 -175 -209 -376 -481 -464 -627 -156 -260
-205 -346 -264 -459 -87 -166 -178 -365 -238 -519 -25 -63 -49 -124 -54 -135
-14 -31 -83 -238 -117 -350 -75 -246 -163 -639 -187 -835 -3 -25 -8 -56 -10
-70 -2 -14 -7 -52 -10 -85 -4 -33 -8 -71 -10 -85 -4 -24 -14 -134 -21 -230 -5
-69 -5 -708 1 -765 2 -27 7 -81 10 -120 3 -38 8 -83 10 -100 2 -16 6 -61 10
-100 3 -38 8 -77 10 -85 2 -8 7 -35 10 -60 77 -578 274 -1203 557 -1770 l67
-135 -75 80 c-255 271 -488 573 -700 910 -121 191 -291 522 -379 737 -15 35
-32 77 -40 93 -79 179 -226 646 -269 860 -2 11 -10 43 -16 70 -6 28 -16 74
-21 103 -5 28 -13 76 -18 105 -5 28 -12 66 -15 82 -4 26 -18 126 -31 235 -2
19 -7 58 -9 85 -3 28 -9 86 -13 130 -10 105 -10 731 0 860 7 94 11 131 22 215
2 19 7 60 10 90 11 104 61 382 91 510 9 36 17 72 19 80 37 168 162 568 220
705 7 17 29 71 50 120 209 511 563 1089 906 1480 14 17 50 57 79 90 174 199
520 528 700 665 366 279 655 462 995 630 264 130 579 257 805 325 47 14 99 29
115 35 42 13 294 78 325 84 14 2 68 14 120 25 102 22 135 28 190 37 19 2 46 7
60 9 14 2 52 7 85 10 33 4 67 8 75 10 8 2 47 7 85 11 39 3 72 8 75 9 3 2 59 6
125 10 66 4 122 9 124 11 6 5 693 -3 721 -9z m1025 -1162 c94 -3 184 -8 200
-10 17 -2 57 -7 90 -10 95 -11 128 -15 165 -20 32 -4 51 -7 150 -20 19 -3 58
-9 85 -15 28 -5 68 -12 89 -15 106 -15 421 -95 636 -162 328 -101 781 -296
1028 -442 29 -17 54 -31 56 -31 18 0 385 -238 526 -341 34 -25 250 -321 250
-343 0 -2 -42 14 -92 36 -399 173 -973 337 -1373 393 -22 3 -67 10 -100 15
-101 15 -127 18 -200 26 -38 3 -81 8 -95 9 -190 24 -826 23 -1020 0 -19 -2
-69 -7 -111 -10 -42 -3 -85 -7 -95 -9 -11 -2 -41 -7 -69 -10 -27 -4 -61 -8
-75 -11 -14 -3 -41 -7 -60 -10 -477 -74 -1009 -231 -1450 -428 -754 -336
-1430 -826 -1974 -1432 -139 -154 -154 -171 -217 -250 -489 -608 -853 -1309
-1069 -2055 -37 -127 -90 -342 -104 -420 -3 -19 -9 -46 -12 -60 -11 -50 -52
-296 -59 -350 -3 -30 -8 -66 -10 -80 -3 -22 -7 -61 -21 -205 -12 -127 -16
-268 -16 -505 1 -335 7 -439 47 -772 3 -24 9 -68 15 -98 5 -30 12 -73 15 -95
3 -22 7 -47 10 -55 2 -8 6 -32 9 -53 36 -241 211 -852 305 -1062 5 -11 19 -47
32 -80 13 -33 33 -80 45 -105 12 -25 20 -47 18 -49 -3 -4 -172 106 -219 142
-5 4 -31 23 -56 42 -26 18 -63 57 -84 86 -88 123 -185 269 -185 278 0 6 -3 11
-7 11 -5 0 -13 10 -19 23 -6 12 -48 85 -94 162 -128 217 -268 504 -370 760
-37 92 -141 403 -166 491 -48 178 -109 440 -129 559 -2 17 -7 41 -10 55 -3 14
-7 41 -9 61 -2 19 -6 44 -9 55 -3 10 -8 46 -11 79 -4 33 -8 71 -10 85 -3 14
-8 61 -12 105 -30 348 -33 667 -9 1010 4 62 23 237 30 275 1 8 6 40 10 70 11
88 53 316 81 435 14 61 27 119 29 130 8 38 77 280 85 300 4 11 18 52 30 90
130 420 403 975 678 1380 66 97 246 341 261 355 3 3 33 38 66 79 92 114 163
192 334 365 506 514 1089 911 1776 1211 170 74 475 183 635 226 136 37 225 61
240 64 9 2 67 14 130 29 63 14 131 28 150 31 19 3 58 10 85 15 55 10 235 36
305 44 213 23 231 25 435 32 99 4 181 7 182 8 2 2 129 -2 308 -9z m1120 -1169
c105 -3 199 -7 211 -10 11 -2 56 -7 100 -11 78 -6 92 -8 184 -20 25 -3 63 -8
85 -10 39 -5 300 -50 340 -59 11 -3 54 -12 95 -21 375 -80 866 -255 1235 -440
l140 -70 55 -110 c174 -344 318 -734 420 -1135 12 -47 24 -96 26 -110 3 -14
11 -50 19 -80 7 -30 16 -73 20 -95 4 -22 9 -51 11 -65 3 -14 7 -32 9 -40 2 -8
7 -37 11 -65 3 -27 8 -57 9 -65 2 -9 6 -43 10 -75 4 -33 9 -69 11 -80 2 -11 7
-51 10 -90 3 -38 7 -81 9 -95 10 -59 19 -291 20 -495 0 -276 -14 -526 -40
-705 -2 -14 -6 -47 -10 -75 -5 -42 -17 -115 -50 -300 -64 -353 -199 -790 -355
-1150 -217 -499 -498 -952 -856 -1380 -555 -664 -1302 -1217 -2089 -1545 -82
-34 -159 -66 -170 -71 -112 -50 -500 -171 -715 -224 -78 -19 -117 -28 -130
-30 -8 -1 -40 -7 -70 -13 -66 -15 -82 -18 -140 -27 -25 -3 -58 -9 -75 -12 -42
-7 -62 -10 -130 -18 -33 -4 -69 -9 -80 -11 -11 -3 -49 -7 -85 -10 -36 -3 -76
-7 -90 -10 -147 -23 -802 -23 -1010 0 -19 3 -69 7 -109 11 -41 3 -77 8 -80 10
-4 1 -35 6 -71 10 -36 4 -67 8 -70 10 -3 2 -30 6 -60 9 -30 3 -64 8 -75 10
-226 46 -307 64 -450 101 -385 100 -811 260 -1110 418 l-80 42 -47 90 c-72
137 -154 323 -220 495 -32 85 -63 164 -67 175 -56 136 -185 618 -216 808 -3
18 -7 43 -10 57 -3 14 -7 41 -10 60 -3 19 -10 60 -15 90 -5 30 -12 82 -15 115
-4 33 -8 71 -10 85 -3 14 -7 57 -11 95 -3 39 -9 115 -14 170 -8 103 -6 761 3
805 3 14 8 63 11 110 4 47 8 96 10 110 4 23 11 73 22 160 5 38 40 240 49 280
3 14 8 41 11 60 3 19 28 121 54 227 277 1094 882 2080 1740 2835 388 341 915
679 1375 883 333 147 735 285 990 340 11 2 70 15 130 29 96 23 279 56 385 70
19 2 55 7 80 11 25 3 61 8 80 11 19 2 69 7 110 10 41 3 89 7 105 9 17 3 120 8
230 11 110 4 202 8 203 10 2 1 9 1 15 -1 7 -2 98 -6 202 -9z m2873 -927 c232
-155 232 -156 371 -359 59 -87 211 -328 211 -335 0 -2 16 -32 36 -67 97 -168
257 -498 308 -635 86 -231 131 -360 161 -459 40 -132 111 -407 121 -469 3 -22
8 -43 10 -46 4 -7 52 -289 59 -349 3 -25 7 -61 10 -80 3 -19 8 -60 10 -90 3
-31 7 -71 10 -90 26 -195 26 -875 0 -1030 -2 -14 -7 -56 -10 -95 -5 -63 -10
-100 -30 -230 -3 -22 -8 -56 -11 -75 -5 -30 -59 -308 -69 -350 -135 -585 -381
-1179 -694 -1680 -297 -475 -614 -850 -1061 -1256 -137 -124 -469 -375 -633
-480 -43 -27 -101 -64 -130 -83 -29 -18 -70 -43 -92 -56 -22 -12 -71 -40 -110
-62 -233 -133 -504 -257 -845 -387 -110 -42 -518 -161 -619 -181 -9 -2 -70
-14 -136 -28 -131 -28 -270 -52 -354 -62 -30 -4 -61 -8 -70 -10 -36 -6 -176
-20 -316 -32 -195 -15 -803 -7 -915 12 -14 2 -52 7 -85 10 -111 11 -265 31
-295 40 -8 2 -35 7 -60 10 -61 8 -357 72 -450 96 -460 122 -885 292 -1305 521
-203 112 -541 334 -605 398 -37 37 -238 320 -227 320 1 0 48 -19 102 -41 196
-81 514 -194 660 -235 119 -32 362 -92 400 -98 22 -4 48 -9 57 -12 18 -5 34
-9 118 -24 30 -6 65 -12 77 -14 12 -3 50 -7 84 -11 35 -4 66 -8 69 -10 3 -2
32 -6 65 -9 55 -6 94 -10 180 -21 209 -27 996 -27 1133 0 10 2 49 6 87 10 39
3 81 8 95 10 14 2 45 7 70 10 100 14 244 39 340 60 36 7 81 16 100 19 122 18
491 125 745 215 206 74 631 261 676 298 8 7 19 13 23 13 27 0 404 225 601 359
137 92 381 277 425 321 3 3 32 27 65 55 89 74 144 125 313 290 652 636 1160
1454 1452 2335 54 162 59 181 115 396 31 121 66 279 80 364 3 19 10 58 15 85
5 28 14 86 20 130 6 44 13 90 15 101 3 21 9 68 20 174 28 256 28 931 1 1135
-3 17 -7 63 -11 104 -4 41 -8 82 -10 92 -2 9 -6 39 -10 66 -7 52 -42 266 -49
298 -2 11 -14 67 -26 125 -67 321 -209 759 -354 1093 -9 20 -14 37 -11 37 3 0
41 -23 83 -51z m1078 -934 c257 -287 448 -550 672 -925 129 -216 304 -592 410
-880 97 -264 200 -638 247 -895 13 -71 35 -208 40 -250 4 -27 8 -60 10 -73 2
-13 7 -53 11 -90 3 -37 8 -78 10 -92 25 -205 24 -845 -1 -1045 -2 -16 -7 -59
-10 -95 -4 -36 -8 -76 -10 -90 -2 -14 -7 -45 -10 -70 -13 -101 -57 -342 -81
-445 -14 -60 -27 -117 -29 -126 -36 -160 -143 -498 -218 -689 -381 -969 -1026
-1819 -1847 -2434 -63 -47 -119 -89 -125 -94 -30 -23 -333 -220 -386 -250
-253 -145 -351 -194 -642 -326 -211 -96 -614 -231 -878 -296 -82 -20 -104 -25
-157 -34 -12 -3 -30 -7 -40 -10 -32 -10 -353 -62 -437 -70 -22 -3 -60 -7 -85
-10 -280 -37 -798 -42 -1120 -11 -101 10 -156 16 -180 20 -14 2 -47 6 -75 9
-203 21 -588 103 -855 182 -423 125 -980 375 -1315 589 -304 195 -520 351
-671 484 -22 20 -67 59 -100 88 -32 28 -95 86 -139 127 l-80 76 140 -69 c359
-177 670 -295 1130 -426 59 -16 353 -82 409 -91 21 -3 48 -8 60 -10 113 -23
431 -61 586 -71 245 -16 806 -9 990 12 19 2 62 6 95 10 33 3 71 8 85 10 14 2
61 9 105 15 488 68 1063 234 1525 441 455 204 952 512 1335 827 206 170 450
404 624 597 98 109 154 176 315 376 35 43 198 275 253 359 330 506 592 1093
748 1675 16 61 75 311 82 345 2 14 15 84 28 155 13 72 27 157 30 190 4 33 9
67 10 75 2 8 6 47 10 85 4 39 9 84 11 100 14 127 19 286 19 575 0 359 -3 421
-35 685 -81 678 -265 1292 -576 1920 l-64 130 47 -50 c27 -27 85 -90 129 -140z"/>
</g>
</svg>
